<?xml version="1.0" encoding="UTF-8"?>
<svg id="Layer_1" data-name="Layer 1" xmlns="http://www.w3.org/2000/svg" version="1.1" viewBox="0 0 3500 25.2">
  <defs>
    <style>
      .cls-1 {
        fill: #fff;
        stroke-width: 0px;
      }
    </style>
  </defs>
  <g>
    <polygon class="cls-1" points="2381.8 2.8 2367.3 27.2 2372.3 27.2 2386.7 2.8 2381.8 2.8"/>
    <polygon class="cls-1" points="2372.4 2.8 2358 27.2 2362.9 27.2 2377.4 2.8 2372.4 2.8"/>
    <polygon class="cls-1" points="2362.4 2.8 2347.9 27.2 2352.9 27.2 2367.3 2.8 2362.4 2.8"/>
    <polygon class="cls-1" points="2411.2 2.8 2396.7 27.2 2401.7 27.2 2416.1 2.8 2411.2 2.8"/>
    <polygon class="cls-1" points="2401.8 2.8 2387.4 27.2 2392.3 27.2 2406.8 2.8 2401.8 2.8"/>
    <polygon class="cls-1" points="2391.8 2.8 2377.4 27.2 2382.3 27.2 2396.7 2.8 2391.8 2.8"/>
    <polygon class="cls-1" points="2440.6 2.8 2426.2 27.2 2431.1 27.2 2445.6 2.8 2440.6 2.8"/>
    <polygon class="cls-1" points="2431.2 2.8 2416.8 27.2 2421.8 27.2 2436.2 2.8 2431.2 2.8"/>
    <polygon class="cls-1" points="2421.2 2.8 2406.8 27.2 2411.7 27.2 2426.2 2.8 2421.2 2.8"/>
    <polygon class="cls-1" points="2470 2.8 2455.6 27.2 2460.5 27.2 2475 2.8 2470 2.8"/>
    <polygon class="cls-1" points="2460.6 2.8 2446.2 27.2 2451.2 27.2 2465.6 2.8 2460.6 2.8"/>
    <polygon class="cls-1" points="2450.6 2.8 2436.2 27.2 2441.2 27.2 2455.6 2.8 2450.6 2.8"/>
    <polygon class="cls-1" points="2499.4 2.8 2485 27.2 2490 27.2 2504.4 2.8 2499.4 2.8"/>
    <polygon class="cls-1" points="2490.1 2.8 2475.6 27.2 2480.6 27.2 2495 2.8 2490.1 2.8"/>
    <polygon class="cls-1" points="2480 2.8 2465.6 27.2 2470.6 27.2 2485 2.8 2480 2.8"/>
    <polygon class="cls-1" points="2509.5 2.8 2495 27.2 2500 27.2 2514.4 2.8 2509.5 2.8"/>
    <polygon class="cls-1" points="2353 2.8 2338.6 27.2 2343.5 27.2 2358 2.8 2353 2.8"/>
    <polygon class="cls-1" points="2343 2.8 2328.5 27.2 2333.5 27.2 2347.9 2.8 2343 2.8"/>
    <polygon class="cls-1" points="2333.6 2.8 2319.2 27.2 2324.1 27.2 2338.6 2.8 2333.6 2.8"/>
    <polygon class="cls-1" points="2323.6 2.8 2309.2 27.2 2314.1 27.2 2328.5 2.8 2323.6 2.8"/>
    <polygon class="cls-1" points="2314.2 2.8 2299.8 27.2 2304.7 27.2 2319.2 2.8 2314.2 2.8"/>
    <polygon class="cls-1" points="2304.2 2.8 2289.8 27.2 2294.7 27.2 2309.2 2.8 2304.2 2.8"/>
    <polygon class="cls-1" points="2294.8 2.8 2280.4 27.2 2285.3 27.2 2299.8 2.8 2294.8 2.8"/>
    <polygon class="cls-1" points="2284.8 2.8 2270.4 27.2 2275.3 27.2 2289.8 2.8 2284.8 2.8"/>
    <polygon class="cls-1" points="2275.4 2.8 2261 27.2 2266 27.2 2280.4 2.8 2275.4 2.8"/>
    <polygon class="cls-1" points="2265.4 2.8 2251 27.2 2255.9 27.2 2270.4 2.8 2265.4 2.8"/>
    <polygon class="cls-1" points="2256 2.8 2241.6 27.2 2246.6 27.2 2261 2.8 2256 2.8"/>
    <polygon class="cls-1" points="2246 2.8 2231.6 27.2 2236.5 27.2 2251 2.8 2246 2.8"/>
    <polygon class="cls-1" points="2236.6 2.8 2222.2 27.2 2227.2 27.2 2241.6 2.8 2236.6 2.8"/>
    <polygon class="cls-1" points="2226.6 2.8 2212.2 27.2 2217.1 27.2 2231.6 2.8 2226.6 2.8"/>
    <polygon class="cls-1" points="2217.2 2.8 2202.8 27.2 2207.8 27.2 2222.2 2.8 2217.2 2.8"/>
    <polygon class="cls-1" points="2207.2 2.8 2192.8 27.2 2197.8 27.2 2212.2 2.8 2207.2 2.8"/>
    <polygon class="cls-1" points="2197.9 2.8 2183.4 27.2 2188.4 27.2 2202.8 2.8 2197.9 2.8"/>
    <polygon class="cls-1" points="2187.8 2.8 2173.4 27.2 2178.4 27.2 2192.8 2.8 2187.8 2.8"/>
    <polygon class="cls-1" points="2178.5 2.8 2164 27.2 2169 27.2 2183.4 2.8 2178.5 2.8"/>
    <polygon class="cls-1" points="2168.4 2.8 2154 27.2 2159 27.2 2173.4 2.8 2168.4 2.8"/>
    <polygon class="cls-1" points="2159.1 2.8 2144.6 27.2 2149.6 27.2 2164 2.8 2159.1 2.8"/>
    <polygon class="cls-1" points="2149 2.8 2134.6 27.2 2139.6 27.2 2154 2.8 2149 2.8"/>
    <polygon class="cls-1" points="2139.7 2.8 2125.2 27.2 2130.2 27.2 2144.6 2.8 2139.7 2.8"/>
    <polygon class="cls-1" points="2129.6 2.8 2115.2 27.2 2120.2 27.2 2134.6 2.8 2129.6 2.8"/>
    <polygon class="cls-1" points="2120.3 2.8 2105.8 27.2 2110.8 27.2 2125.2 2.8 2120.3 2.8"/>
    <polygon class="cls-1" points="2110.3 2.8 2095.8 27.2 2100.8 27.2 2115.2 2.8 2110.3 2.8"/>
    <polygon class="cls-1" points="2100.9 2.8 2086.5 27.2 2091.4 27.2 2105.8 2.8 2100.9 2.8"/>
    <polygon class="cls-1" points="2090.9 2.8 2076.4 27.2 2081.4 27.2 2095.8 2.8 2090.9 2.8"/>
    <polygon class="cls-1" points="2081.5 2.8 2067.1 27.2 2072 27.2 2086.5 2.8 2081.5 2.8"/>
    <polygon class="cls-1" points="2071.5 2.8 2057 27.2 2062 27.2 2076.4 2.8 2071.5 2.8"/>
    <polygon class="cls-1" points="2062.1 2.8 2047.7 27.2 2052.6 27.2 2067.1 2.8 2062.1 2.8"/>
    <polygon class="cls-1" points="2052.1 2.8 2037.6 27.2 2042.6 27.2 2057 2.8 2052.1 2.8"/>
    <polygon class="cls-1" points="2042.7 2.8 2028.3 27.2 2033.2 27.2 2047.7 2.8 2042.7 2.8"/>
    <polygon class="cls-1" points="2032.7 2.8 2018.3 27.2 2023.2 27.2 2037.6 2.8 2032.7 2.8"/>
    <polygon class="cls-1" points="2023.3 2.8 2008.9 27.2 2013.8 27.2 2028.3 2.8 2023.3 2.8"/>
    <polygon class="cls-1" points="2013.3 2.8 1998.9 27.2 2003.8 27.2 2018.3 2.8 2013.3 2.8"/>
    <polygon class="cls-1" points="2003.9 2.8 1989.5 27.2 1994.4 27.2 2008.9 2.8 2003.9 2.8"/>
    <polygon class="cls-1" points="1993.9 2.8 1979.5 27.2 1984.4 27.2 1998.9 2.8 1993.9 2.8"/>
    <polygon class="cls-1" points="1984.5 2.8 1970.1 27.2 1975.1 27.2 1989.5 2.8 1984.5 2.8"/>
    <polygon class="cls-1" points="1974.5 2.8 1960.1 27.2 1965 27.2 1979.5 2.8 1974.5 2.8"/>
    <polygon class="cls-1" points="1965.1 2.8 1950.7 27.2 1955.7 27.2 1970.1 2.8 1965.1 2.8"/>
    <polygon class="cls-1" points="1955.1 2.8 1940.7 27.2 1945.6 27.2 1960.1 2.8 1955.1 2.8"/>
    <polygon class="cls-1" points="1945.7 2.8 1931.3 27.2 1936.3 27.2 1950.7 2.8 1945.7 2.8"/>
    <polygon class="cls-1" points="1935.7 2.8 1921.3 27.2 1926.2 27.2 1940.7 2.8 1935.7 2.8"/>
    <polygon class="cls-1" points="1926.3 2.8 1911.9 27.2 1916.9 27.2 1931.3 2.8 1926.3 2.8"/>
    <polygon class="cls-1" points="1916.3 2.8 1901.9 27.2 1906.9 27.2 1921.3 2.8 1916.3 2.8"/>
    <polygon class="cls-1" points="1907 2.8 1892.5 27.2 1897.5 27.2 1911.9 2.8 1907 2.8"/>
    <polygon class="cls-1" points="1896.9 2.8 1882.5 27.2 1887.5 27.2 1901.9 2.8 1896.9 2.8"/>
    <polygon class="cls-1" points="1887.6 2.8 1873.1 27.2 1878.1 27.2 1892.5 2.8 1887.6 2.8"/>
    <polygon class="cls-1" points="1877.5 2.8 1863.1 27.2 1868.1 27.2 1882.5 2.8 1877.5 2.8"/>
    <polygon class="cls-1" points="1868.2 2.8 1853.7 27.2 1858.7 27.2 1873.1 2.8 1868.2 2.8"/>
    <polygon class="cls-1" points="1858.1 2.8 1843.7 27.2 1848.7 27.2 1863.1 2.8 1858.1 2.8"/>
    <polygon class="cls-1" points="1848.8 2.8 1834.3 27.2 1839.3 27.2 1853.7 2.8 1848.8 2.8"/>
    <polygon class="cls-1" points="1838.7 2.8 1824.3 27.2 1829.3 27.2 1843.7 2.8 1838.7 2.8"/>
    <polygon class="cls-1" points="1829.4 2.8 1814.9 27.2 1819.9 27.2 1834.3 2.8 1829.4 2.8"/>
    <polygon class="cls-1" points="1819.4 2.8 1804.9 27.2 1809.9 27.2 1824.3 2.8 1819.4 2.8"/>
    <polygon class="cls-1" points="1810 2.8 1795.6 27.2 1800.5 27.2 1814.9 2.8 1810 2.8"/>
    <polygon class="cls-1" points="1800 2.8 1785.5 27.2 1790.5 27.2 1804.9 2.8 1800 2.8"/>
    <polygon class="cls-1" points="1790.6 2.8 1776.2 27.2 1781.1 27.2 1795.6 2.8 1790.6 2.8"/>
    <polygon class="cls-1" points="1780.6 2.8 1766.1 27.2 1771.1 27.2 1785.5 2.8 1780.6 2.8"/>
    <polygon class="cls-1" points="1771.2 2.8 1756.8 27.2 1761.7 27.2 1776.2 2.8 1771.2 2.8"/>
    <polygon class="cls-1" points="1761.2 2.8 1746.7 27.2 1751.7 27.2 1766.1 2.8 1761.2 2.8"/>
    <polygon class="cls-1" points="1751.8 2.8 1737.4 27.2 1742.3 27.2 1756.8 2.8 1751.8 2.8"/>
    <polygon class="cls-1" points="1741.8 2.8 1727.3 27.2 1732.3 27.2 1746.7 2.8 1741.8 2.8"/>
    <polygon class="cls-1" points="1732.4 2.8 1718 27.2 1722.9 27.2 1737.4 2.8 1732.4 2.8"/>
    <polygon class="cls-1" points="1722.4 2.8 1708 27.2 1712.9 27.2 1727.3 2.8 1722.4 2.8"/>
    <polygon class="cls-1" points="1713 2.8 1698.6 27.2 1703.5 27.2 1718 2.8 1713 2.8"/>
    <polygon class="cls-1" points="1703 2.8 1688.6 27.2 1693.5 27.2 1708 2.8 1703 2.8"/>
    <polygon class="cls-1" points="1693.6 2.8 1679.2 27.2 1684.2 27.2 1698.6 2.8 1693.6 2.8"/>
    <polygon class="cls-1" points="1683.6 2.8 1669.2 27.2 1674.1 27.2 1688.6 2.8 1683.6 2.8"/>
    <polygon class="cls-1" points="1674.2 2.8 1659.8 27.2 1664.8 27.2 1679.2 2.8 1674.2 2.8"/>
    <polygon class="cls-1" points="1664.2 2.8 1649.8 27.2 1654.7 27.2 1669.2 2.8 1664.2 2.8"/>
    <polygon class="cls-1" points="1654.8 2.8 1640.4 27.2 1645.4 27.2 1659.8 2.8 1654.8 2.8"/>
    <polygon class="cls-1" points="1644.8 2.8 1630.4 27.2 1635.3 27.2 1649.8 2.8 1644.8 2.8"/>
    <polygon class="cls-1" points="1635.4 2.8 1621 27.2 1626 27.2 1640.4 2.8 1635.4 2.8"/>
    <polygon class="cls-1" points="1625.4 2.8 1611 27.2 1615.9 27.2 1630.4 2.8 1625.4 2.8"/>
    <polygon class="cls-1" points="1616 2.8 1601.6 27.2 1606.6 27.2 1621 2.8 1616 2.8"/>
    <polygon class="cls-1" points="1606 2.8 1591.6 27.2 1596.6 27.2 1611 2.8 1606 2.8"/>
    <polygon class="cls-1" points="1596.7 2.8 1582.2 27.2 1587.2 27.2 1601.6 2.8 1596.7 2.8"/>
    <polygon class="cls-1" points="1586.6 2.8 1572.2 27.2 1577.2 27.2 1591.6 2.8 1586.6 2.8"/>
    <polygon class="cls-1" points="1577.3 2.8 1562.8 27.2 1567.8 27.2 1582.2 2.8 1577.3 2.8"/>
    <polygon class="cls-1" points="1567.2 2.8 1552.8 27.2 1557.8 27.2 1572.2 2.8 1567.2 2.8"/>
    <polygon class="cls-1" points="1557.9 2.8 1543.4 27.2 1548.4 27.2 1562.8 2.8 1557.9 2.8"/>
    <polygon class="cls-1" points="1547.8 2.8 1533.4 27.2 1538.4 27.2 1552.8 2.8 1547.8 2.8"/>
    <polygon class="cls-1" points="1538.5 2.8 1524 27.2 1529 27.2 1543.4 2.8 1538.5 2.8"/>
    <polygon class="cls-1" points="1528.5 2.8 1514 27.2 1519 27.2 1533.4 2.8 1528.5 2.8"/>
    <polygon class="cls-1" points="1519.1 2.8 1504.7 27.2 1509.6 27.2 1524 2.8 1519.1 2.8"/>
    <polygon class="cls-1" points="1509.1 2.8 1494.6 27.2 1499.6 27.2 1514 2.8 1509.1 2.8"/>
    <polygon class="cls-1" points="1499.7 2.8 1485.3 27.2 1490.2 27.2 1504.7 2.8 1499.7 2.8"/>
    <polygon class="cls-1" points="1489.7 2.8 1475.2 27.2 1480.2 27.2 1494.6 2.8 1489.7 2.8"/>
    <polygon class="cls-1" points="1480.3 2.8 1465.9 27.2 1470.8 27.2 1485.3 2.8 1480.3 2.8"/>
    <polygon class="cls-1" points="1470.3 2.8 1455.8 27.2 1460.8 27.2 1475.2 2.8 1470.3 2.8"/>
    <polygon class="cls-1" points="1460.9 2.8 1446.5 27.2 1451.4 27.2 1465.9 2.8 1460.9 2.8"/>
    <polygon class="cls-1" points="1450.9 2.8 1436.4 27.2 1441.4 27.2 1455.8 2.8 1450.9 2.8"/>
    <polygon class="cls-1" points="1441.5 2.8 1427.1 27.2 1432 27.2 1446.5 2.8 1441.5 2.8"/>
    <polygon class="cls-1" points="1431.5 2.8 1417.1 27.2 1422 27.2 1436.4 2.8 1431.5 2.8"/>
    <polygon class="cls-1" points="1422.1 2.8 1407.7 27.2 1412.6 27.2 1427.1 2.8 1422.1 2.8"/>
    <polygon class="cls-1" points="1412.1 2.8 1397.7 27.2 1402.6 27.2 1417.1 2.8 1412.1 2.8"/>
    <polygon class="cls-1" points="1402.7 2.8 1388.3 27.2 1393.3 27.2 1407.7 2.8 1402.7 2.8"/>
    <polygon class="cls-1" points="1392.7 2.8 1378.3 27.2 1383.2 27.2 1397.7 2.8 1392.7 2.8"/>
    <polygon class="cls-1" points="1383.3 2.8 1368.9 27.2 1373.9 27.2 1388.3 2.8 1383.3 2.8"/>
    <polygon class="cls-1" points="1373.3 2.8 1358.9 27.2 1363.8 27.2 1378.3 2.8 1373.3 2.8"/>
    <polygon class="cls-1" points="1363.9 2.8 1349.5 27.2 1354.5 27.2 1368.9 2.8 1363.9 2.8"/>
    <polygon class="cls-1" points="1353.9 2.8 1339.5 27.2 1344.4 27.2 1358.9 2.8 1353.9 2.8"/>
    <polygon class="cls-1" points="1344.5 2.8 1330.1 27.2 1335.1 27.2 1349.5 2.8 1344.5 2.8"/>
    <polygon class="cls-1" points="1334.5 2.8 1320.1 27.2 1325 27.2 1339.5 2.8 1334.5 2.8"/>
    <polygon class="cls-1" points="1325.1 2.8 1310.7 27.2 1315.7 27.2 1330.1 2.8 1325.1 2.8"/>
    <polygon class="cls-1" points="1315.1 2.8 1300.7 27.2 1305.7 27.2 1320.1 2.8 1315.1 2.8"/>
    <polygon class="cls-1" points="1305.8 2.8 1291.3 27.2 1296.3 27.2 1310.7 2.8 1305.8 2.8"/>
    <polygon class="cls-1" points="1295.7 2.8 1281.3 27.2 1286.3 27.2 1300.7 2.8 1295.7 2.8"/>
    <polygon class="cls-1" points="1286.4 2.8 1271.9 27.2 1276.9 27.2 1291.3 2.8 1286.4 2.8"/>
    <polygon class="cls-1" points="1276.3 2.8 1261.9 27.2 1266.9 27.2 1281.3 2.8 1276.3 2.8"/>
    <polygon class="cls-1" points="1267 2.8 1252.5 27.2 1257.5 27.2 1271.9 2.8 1267 2.8"/>
    <polygon class="cls-1" points="1256.9 2.8 1242.5 27.2 1247.5 27.2 1261.9 2.8 1256.9 2.8"/>
    <polygon class="cls-1" points="1247.6 2.8 1233.1 27.2 1238.1 27.2 1252.5 2.8 1247.6 2.8"/>
    <polygon class="cls-1" points="1237.6 2.8 1223.1 27.2 1228.1 27.2 1242.5 2.8 1237.6 2.8"/>
    <polygon class="cls-1" points="1228.2 2.8 1213.7 27.2 1218.7 27.2 1233.1 2.8 1228.2 2.8"/>
  </g>
  <g>
    <polygon class="cls-1" points="3672.7 2.8 3658.3 27.2 3663.3 27.2 3677.7 2.8 3672.7 2.8"/>
    <polygon class="cls-1" points="3663.4 2.8 3648.9 27.2 3653.9 27.2 3668.3 2.8 3663.4 2.8"/>
    <polygon class="cls-1" points="3653.3 2.8 3638.9 27.2 3643.9 27.2 3658.3 2.8 3653.3 2.8"/>
    <polygon class="cls-1" points="3702.2 2.8 3687.7 27.2 3692.7 27.2 3707.1 2.8 3702.2 2.8"/>
    <polygon class="cls-1" points="3692.8 2.8 3678.3 27.2 3683.3 27.2 3697.7 2.8 3692.8 2.8"/>
    <polygon class="cls-1" points="3682.8 2.8 3668.3 27.2 3673.3 27.2 3687.7 2.8 3682.8 2.8"/>
    <polygon class="cls-1" points="3731.6 2.8 3717.1 27.2 3722.1 27.2 3736.5 2.8 3731.6 2.8"/>
    <polygon class="cls-1" points="3722.2 2.8 3707.8 27.2 3712.7 27.2 3727.2 2.8 3722.2 2.8"/>
    <polygon class="cls-1" points="3712.2 2.8 3697.7 27.2 3702.7 27.2 3717.1 2.8 3712.2 2.8"/>
    <polygon class="cls-1" points="3761 2.8 3746.6 27.2 3751.5 27.2 3765.9 2.8 3761 2.8"/>
    <polygon class="cls-1" points="3751.6 2.8 3737.2 27.2 3742.2 27.2 3756.6 2.8 3751.6 2.8"/>
    <polygon class="cls-1" points="3741.6 2.8 3727.2 27.2 3732.1 27.2 3746.6 2.8 3741.6 2.8"/>
    <polygon class="cls-1" points="3790.4 2.8 3776 27.2 3780.9 27.2 3795.4 2.8 3790.4 2.8"/>
    <polygon class="cls-1" points="3781 2.8 3766.6 27.2 3771.6 27.2 3786 2.8 3781 2.8"/>
    <polygon class="cls-1" points="3771 2.8 3756.6 27.2 3761.5 27.2 3776 2.8 3771 2.8"/>
    <polygon class="cls-1" points="3800.4 2.8 3786 27.2 3791 27.2 3805.4 2.8 3800.4 2.8"/>
    <polygon class="cls-1" points="3644 2.8 3629.5 27.2 3634.5 27.2 3648.9 2.8 3644 2.8"/>
    <polygon class="cls-1" points="3633.9 2.8 3619.5 27.2 3624.5 27.2 3638.9 2.8 3633.9 2.8"/>
    <polygon class="cls-1" points="3624.6 2.8 3610.2 27.2 3615.1 27.2 3629.5 2.8 3624.6 2.8"/>
    <polygon class="cls-1" points="3614.6 2.8 3600.1 27.2 3605.1 27.2 3619.5 2.8 3614.6 2.8"/>
    <polygon class="cls-1" points="3605.2 2.8 3590.8 27.2 3595.7 27.2 3610.2 2.8 3605.2 2.8"/>
    <polygon class="cls-1" points="3595.2 2.8 3580.7 27.2 3585.7 27.2 3600.1 2.8 3595.2 2.8"/>
    <polygon class="cls-1" points="3585.8 2.8 3571.4 27.2 3576.3 27.2 3590.8 2.8 3585.8 2.8"/>
    <polygon class="cls-1" points="3575.8 2.8 3561.3 27.2 3566.3 27.2 3580.7 2.8 3575.8 2.8"/>
    <polygon class="cls-1" points="3566.4 2.8 3552 27.2 3556.9 27.2 3571.4 2.8 3566.4 2.8"/>
    <polygon class="cls-1" points="3556.4 2.8 3541.9 27.2 3546.9 27.2 3561.3 2.8 3556.4 2.8"/>
    <polygon class="cls-1" points="3547 2.8 3532.6 27.2 3537.5 27.2 3552 2.8 3547 2.8"/>
    <polygon class="cls-1" points="3537 2.8 3522.5 27.2 3527.5 27.2 3541.9 2.8 3537 2.8"/>
    <polygon class="cls-1" points="3527.6 2.8 3513.2 27.2 3518.1 27.2 3532.6 2.8 3527.6 2.8"/>
    <polygon class="cls-1" points="3517.6 2.8 3503.2 27.2 3508.1 27.2 3522.5 2.8 3517.6 2.8"/>
    <polygon class="cls-1" points="3508.2 2.8 3493.8 27.2 3498.7 27.2 3513.2 2.8 3508.2 2.8"/>
    <polygon class="cls-1" points="3498.2 2.8 3483.8 27.2 3488.7 27.2 3503.2 2.8 3498.2 2.8"/>
    <polygon class="cls-1" points="3488.8 2.8 3474.4 27.2 3479.4 27.2 3493.8 2.8 3488.8 2.8"/>
    <polygon class="cls-1" points="3478.8 2.8 3464.4 27.2 3469.3 27.2 3483.8 2.8 3478.8 2.8"/>
    <polygon class="cls-1" points="3469.4 2.8 3455 27.2 3460 27.2 3474.4 2.8 3469.4 2.8"/>
    <polygon class="cls-1" points="3459.4 2.8 3445 27.2 3449.9 27.2 3464.4 2.8 3459.4 2.8"/>
    <polygon class="cls-1" points="3450 2.8 3435.6 27.2 3440.6 27.2 3455 2.8 3450 2.8"/>
    <polygon class="cls-1" points="3440 2.8 3425.6 27.2 3430.5 27.2 3445 2.8 3440 2.8"/>
    <polygon class="cls-1" points="3430.7 2.8 3416.2 27.2 3421.2 27.2 3435.6 2.8 3430.7 2.8"/>
    <polygon class="cls-1" points="3420.6 2.8 3406.2 27.2 3411.2 27.2 3425.6 2.8 3420.6 2.8"/>
    <polygon class="cls-1" points="3411.2 2.8 3396.8 27.2 3401.8 27.2 3416.2 2.8 3411.2 2.8"/>
    <polygon class="cls-1" points="3401.2 2.8 3386.8 27.2 3391.8 27.2 3406.2 2.8 3401.2 2.8"/>
    <polygon class="cls-1" points="3391.9 2.8 3377.4 27.2 3382.4 27.2 3396.8 2.8 3391.9 2.8"/>
    <polygon class="cls-1" points="3381.8 2.8 3367.4 27.2 3372.4 27.2 3386.8 2.8 3381.8 2.8"/>
    <polygon class="cls-1" points="3372.5 2.8 3358 27.2 3363 27.2 3377.4 2.8 3372.5 2.8"/>
    <polygon class="cls-1" points="3362.4 2.8 3348 27.2 3353 27.2 3367.4 2.8 3362.4 2.8"/>
    <polygon class="cls-1" points="3353.1 2.8 3338.6 27.2 3343.6 27.2 3358 2.8 3353.1 2.8"/>
    <polygon class="cls-1" points="3343 2.8 3328.6 27.2 3333.6 27.2 3348 2.8 3343 2.8"/>
    <polygon class="cls-1" points="3333.7 2.8 3319.2 27.2 3324.2 27.2 3338.6 2.8 3333.7 2.8"/>
    <polygon class="cls-1" points="3323.7 2.8 3309.2 27.2 3314.2 27.2 3328.6 2.8 3323.7 2.8"/>
    <polygon class="cls-1" points="3314.3 2.8 3299.9 27.2 3304.8 27.2 3319.2 2.8 3314.3 2.8"/>
    <polygon class="cls-1" points="3304.3 2.8 3289.8 27.2 3294.8 27.2 3309.2 2.8 3304.3 2.8"/>
    <polygon class="cls-1" points="3294.9 2.8 3280.5 27.2 3285.4 27.2 3299.9 2.8 3294.9 2.8"/>
    <polygon class="cls-1" points="3284.9 2.8 3270.4 27.2 3275.4 27.2 3289.8 2.8 3284.9 2.8"/>
    <polygon class="cls-1" points="3275.5 2.8 3261.1 27.2 3266 27.2 3280.5 2.8 3275.5 2.8"/>
    <polygon class="cls-1" points="3265.5 2.8 3251 27.2 3256 27.2 3270.4 2.8 3265.5 2.8"/>
    <polygon class="cls-1" points="3256.1 2.8 3241.7 27.2 3246.6 27.2 3261.1 2.8 3256.1 2.8"/>
    <polygon class="cls-1" points="3246.1 2.8 3231.6 27.2 3236.6 27.2 3251 2.8 3246.1 2.8"/>
    <polygon class="cls-1" points="3236.7 2.8 3222.3 27.2 3227.2 27.2 3241.7 2.8 3236.7 2.8"/>
    <polygon class="cls-1" points="3226.7 2.8 3212.3 27.2 3217.2 27.2 3231.6 2.8 3226.7 2.8"/>
    <polygon class="cls-1" points="3217.3 2.8 3202.9 27.2 3207.8 27.2 3222.3 2.8 3217.3 2.8"/>
    <polygon class="cls-1" points="3207.3 2.8 3192.9 27.2 3197.8 27.2 3212.3 2.8 3207.3 2.8"/>
    <polygon class="cls-1" points="3197.9 2.8 3183.5 27.2 3188.5 27.2 3202.9 2.8 3197.9 2.8"/>
    <polygon class="cls-1" points="3187.9 2.8 3173.5 27.2 3178.4 27.2 3192.9 2.8 3187.9 2.8"/>
    <polygon class="cls-1" points="3178.5 2.8 3164.1 27.2 3169.1 27.2 3183.5 2.8 3178.5 2.8"/>
    <polygon class="cls-1" points="3168.5 2.8 3154.1 27.2 3159 27.2 3173.5 2.8 3168.5 2.8"/>
    <polygon class="cls-1" points="3159.1 2.8 3144.7 27.2 3149.7 27.2 3164.1 2.8 3159.1 2.8"/>
    <polygon class="cls-1" points="3149.1 2.8 3134.7 27.2 3139.6 27.2 3154.1 2.8 3149.1 2.8"/>
    <polygon class="cls-1" points="3139.7 2.8 3125.3 27.2 3130.3 27.2 3144.7 2.8 3139.7 2.8"/>
    <polygon class="cls-1" points="3129.7 2.8 3115.3 27.2 3120.2 27.2 3134.7 2.8 3129.7 2.8"/>
    <polygon class="cls-1" points="3120.3 2.8 3105.9 27.2 3110.9 27.2 3125.3 2.8 3120.3 2.8"/>
    <polygon class="cls-1" points="3110.3 2.8 3095.9 27.2 3100.9 27.2 3115.3 2.8 3110.3 2.8"/>
    <polygon class="cls-1" points="3101 2.8 3086.5 27.2 3091.5 27.2 3105.9 2.8 3101 2.8"/>
    <polygon class="cls-1" points="3090.9 2.8 3076.5 27.2 3081.5 27.2 3095.9 2.8 3090.9 2.8"/>
    <polygon class="cls-1" points="3081.6 2.8 3067.1 27.2 3072.1 27.2 3086.5 2.8 3081.6 2.8"/>
    <polygon class="cls-1" points="3071.5 2.8 3057.1 27.2 3062.1 27.2 3076.5 2.8 3071.5 2.8"/>
    <polygon class="cls-1" points="3062.2 2.8 3047.7 27.2 3052.7 27.2 3067.1 2.8 3062.2 2.8"/>
    <polygon class="cls-1" points="3052.1 2.8 3037.7 27.2 3042.7 27.2 3057.1 2.8 3052.1 2.8"/>
    <polygon class="cls-1" points="3042.8 2.8 3028.3 27.2 3033.3 27.2 3047.7 2.8 3042.8 2.8"/>
    <polygon class="cls-1" points="3032.8 2.8 3018.3 27.2 3023.3 27.2 3037.7 2.8 3032.8 2.8"/>
    <polygon class="cls-1" points="3023.4 2.8 3008.9 27.2 3013.9 27.2 3028.3 2.8 3023.4 2.8"/>
    <polygon class="cls-1" points="3013.4 2.8 2998.9 27.2 3003.9 27.2 3018.3 2.8 3013.4 2.8"/>
    <polygon class="cls-1" points="3004 2.8 2989.6 27.2 2994.5 27.2 3008.9 2.8 3004 2.8"/>
    <polygon class="cls-1" points="2994 2.8 2979.5 27.2 2984.5 27.2 2998.9 2.8 2994 2.8"/>
    <polygon class="cls-1" points="2984.6 2.8 2970.2 27.2 2975.1 27.2 2989.6 2.8 2984.6 2.8"/>
    <polygon class="cls-1" points="2974.6 2.8 2960.1 27.2 2965.1 27.2 2979.5 2.8 2974.6 2.8"/>
    <polygon class="cls-1" points="2965.2 2.8 2950.8 27.2 2955.7 27.2 2970.2 2.8 2965.2 2.8"/>
    <polygon class="cls-1" points="2955.2 2.8 2940.7 27.2 2945.7 27.2 2960.1 2.8 2955.2 2.8"/>
    <polygon class="cls-1" points="2945.8 2.8 2931.4 27.2 2936.3 27.2 2950.8 2.8 2945.8 2.8"/>
    <polygon class="cls-1" points="2935.8 2.8 2921.4 27.2 2926.3 27.2 2940.7 2.8 2935.8 2.8"/>
    <polygon class="cls-1" points="2926.4 2.8 2912 27.2 2916.9 27.2 2931.4 2.8 2926.4 2.8"/>
    <polygon class="cls-1" points="2916.4 2.8 2902 27.2 2906.9 27.2 2921.4 2.8 2916.4 2.8"/>
    <polygon class="cls-1" points="2907 2.8 2892.6 27.2 2897.5 27.2 2912 2.8 2907 2.8"/>
    <polygon class="cls-1" points="2897 2.8 2882.6 27.2 2887.5 27.2 2902 2.8 2897 2.8"/>
    <polygon class="cls-1" points="2887.6 2.8 2873.2 27.2 2878.2 27.2 2892.6 2.8 2887.6 2.8"/>
    <polygon class="cls-1" points="2877.6 2.8 2863.2 27.2 2868.1 27.2 2882.6 2.8 2877.6 2.8"/>
    <polygon class="cls-1" points="2868.2 2.8 2853.8 27.2 2858.8 27.2 2873.2 2.8 2868.2 2.8"/>
    <polygon class="cls-1" points="2858.2 2.8 2843.8 27.2 2848.7 27.2 2863.2 2.8 2858.2 2.8"/>
    <polygon class="cls-1" points="2848.8 2.8 2834.4 27.2 2839.4 27.2 2853.8 2.8 2848.8 2.8"/>
    <polygon class="cls-1" points="2838.8 2.8 2824.4 27.2 2829.3 27.2 2843.8 2.8 2838.8 2.8"/>
    <polygon class="cls-1" points="2829.4 2.8 2815 27.2 2820 27.2 2834.4 2.8 2829.4 2.8"/>
    <polygon class="cls-1" points="2819.4 2.8 2805 27.2 2810 27.2 2824.4 2.8 2819.4 2.8"/>
    <polygon class="cls-1" points="2810.1 2.8 2795.6 27.2 2800.6 27.2 2815 2.8 2810.1 2.8"/>
    <polygon class="cls-1" points="2800 2.8 2785.6 27.2 2790.6 27.2 2805 2.8 2800 2.8"/>
    <polygon class="cls-1" points="2790.7 2.8 2776.2 27.2 2781.2 27.2 2795.6 2.8 2790.7 2.8"/>
    <polygon class="cls-1" points="2780.6 2.8 2766.2 27.2 2771.2 27.2 2785.6 2.8 2780.6 2.8"/>
    <polygon class="cls-1" points="2771.3 2.8 2756.8 27.2 2761.8 27.2 2776.2 2.8 2771.3 2.8"/>
    <polygon class="cls-1" points="2761.2 2.8 2746.8 27.2 2751.8 27.2 2766.2 2.8 2761.2 2.8"/>
    <polygon class="cls-1" points="2751.9 2.8 2737.4 27.2 2742.4 27.2 2756.8 2.8 2751.9 2.8"/>
    <polygon class="cls-1" points="2741.8 2.8 2727.4 27.2 2732.4 27.2 2746.8 2.8 2741.8 2.8"/>
    <polygon class="cls-1" points="2732.5 2.8 2718 27.2 2723 27.2 2737.4 2.8 2732.5 2.8"/>
    <polygon class="cls-1" points="2722.5 2.8 2708 27.2 2713 27.2 2727.4 2.8 2722.5 2.8"/>
    <polygon class="cls-1" points="2713.1 2.8 2698.7 27.2 2703.6 27.2 2718 2.8 2713.1 2.8"/>
    <polygon class="cls-1" points="2703.1 2.8 2688.6 27.2 2693.6 27.2 2708 2.8 2703.1 2.8"/>
    <polygon class="cls-1" points="2693.7 2.8 2679.3 27.2 2684.2 27.2 2698.7 2.8 2693.7 2.8"/>
    <polygon class="cls-1" points="2683.7 2.8 2669.2 27.2 2674.2 27.2 2688.6 2.8 2683.7 2.8"/>
    <polygon class="cls-1" points="2674.3 2.8 2659.9 27.2 2664.8 27.2 2679.3 2.8 2674.3 2.8"/>
    <polygon class="cls-1" points="2664.3 2.8 2649.8 27.2 2654.8 27.2 2669.2 2.8 2664.3 2.8"/>
    <polygon class="cls-1" points="2654.9 2.8 2640.5 27.2 2645.4 27.2 2659.9 2.8 2654.9 2.8"/>
    <polygon class="cls-1" points="2644.9 2.8 2630.4 27.2 2635.4 27.2 2649.8 2.8 2644.9 2.8"/>
    <polygon class="cls-1" points="2635.5 2.8 2621.1 27.2 2626 27.2 2640.5 2.8 2635.5 2.8"/>
    <polygon class="cls-1" points="2625.5 2.8 2611.1 27.2 2616 27.2 2630.4 2.8 2625.5 2.8"/>
    <polygon class="cls-1" points="2616.1 2.8 2601.7 27.2 2606.6 27.2 2621.1 2.8 2616.1 2.8"/>
    <polygon class="cls-1" points="2606.1 2.8 2591.7 27.2 2596.6 27.2 2611.1 2.8 2606.1 2.8"/>
    <polygon class="cls-1" points="2596.7 2.8 2582.3 27.2 2587.3 27.2 2601.7 2.8 2596.7 2.8"/>
    <polygon class="cls-1" points="2586.7 2.8 2572.3 27.2 2577.2 27.2 2591.7 2.8 2586.7 2.8"/>
    <polygon class="cls-1" points="2577.3 2.8 2562.9 27.2 2567.9 27.2 2582.3 2.8 2577.3 2.8"/>
    <polygon class="cls-1" points="2567.3 2.8 2552.9 27.2 2557.8 27.2 2572.3 2.8 2567.3 2.8"/>
    <polygon class="cls-1" points="2557.9 2.8 2543.5 27.2 2548.5 27.2 2562.9 2.8 2557.9 2.8"/>
    <polygon class="cls-1" points="2547.9 2.8 2533.5 27.2 2538.4 27.2 2552.9 2.8 2547.9 2.8"/>
    <polygon class="cls-1" points="2538.5 2.8 2524.1 27.2 2529.1 27.2 2543.5 2.8 2538.5 2.8"/>
    <polygon class="cls-1" points="2528.5 2.8 2514.1 27.2 2519.1 27.2 2533.5 2.8 2528.5 2.8"/>
    <polygon class="cls-1" points="2519.2 2.8 2504.7 27.2 2509.7 27.2 2524.1 2.8 2519.2 2.8"/>
  </g>
  <g>
    <polygon class="cls-1" points="1012.2 2.8 997.8 27.2 1002.8 27.2 1017.2 2.8 1012.2 2.8"/>
    <polygon class="cls-1" points="1002.9 2.8 988.4 27.2 993.4 27.2 1007.8 2.8 1002.9 2.8"/>
    <polygon class="cls-1" points="992.8 2.8 978.4 27.2 983.4 27.2 997.8 2.8 992.8 2.8"/>
    <polygon class="cls-1" points="1041.7 2.8 1027.2 27.2 1032.2 27.2 1046.6 2.8 1041.7 2.8"/>
    <polygon class="cls-1" points="1032.3 2.8 1017.9 27.2 1022.8 27.2 1037.2 2.8 1032.3 2.8"/>
    <polygon class="cls-1" points="1022.3 2.8 1007.8 27.2 1012.8 27.2 1027.2 2.8 1022.3 2.8"/>
    <polygon class="cls-1" points="1071.1 2.8 1056.6 27.2 1061.6 27.2 1076 2.8 1071.1 2.8"/>
    <polygon class="cls-1" points="1061.7 2.8 1047.3 27.2 1052.2 27.2 1066.7 2.8 1061.7 2.8"/>
    <polygon class="cls-1" points="1051.7 2.8 1037.2 27.2 1042.2 27.2 1056.6 2.8 1051.7 2.8"/>
    <polygon class="cls-1" points="1100.5 2.8 1086.1 27.2 1091 27.2 1105.5 2.8 1100.5 2.8"/>
    <polygon class="cls-1" points="1091.1 2.8 1076.7 27.2 1081.6 27.2 1096.1 2.8 1091.1 2.8"/>
    <polygon class="cls-1" points="1081.1 2.8 1066.7 27.2 1071.6 27.2 1086.1 2.8 1081.1 2.8"/>
    <polygon class="cls-1" points="1129.9 2.8 1115.5 27.2 1120.4 27.2 1134.9 2.8 1129.9 2.8"/>
    <polygon class="cls-1" points="1120.5 2.8 1106.1 27.2 1111.1 27.2 1125.5 2.8 1120.5 2.8"/>
    <polygon class="cls-1" points="1110.5 2.8 1096.1 27.2 1101 27.2 1115.5 2.8 1110.5 2.8"/>
    <polygon class="cls-1" points="1159.3 2.8 1144.9 27.2 1149.9 27.2 1164.3 2.8 1159.3 2.8"/>
    <polygon class="cls-1" points="1150 2.8 1135.5 27.2 1140.5 27.2 1154.9 2.8 1150 2.8"/>
    <polygon class="cls-1" points="1139.9 2.8 1125.5 27.2 1130.5 27.2 1144.9 2.8 1139.9 2.8"/>
    <polygon class="cls-1" points="1188.7 2.8 1174.3 27.2 1179.3 27.2 1193.7 2.8 1188.7 2.8"/>
    <polygon class="cls-1" points="1179.4 2.8 1164.9 27.2 1169.9 27.2 1184.3 2.8 1179.4 2.8"/>
    <polygon class="cls-1" points="1169.3 2.8 1154.9 27.2 1159.9 27.2 1174.3 2.8 1169.3 2.8"/>
    <polygon class="cls-1" points="1218.2 2.8 1203.7 27.2 1208.7 27.2 1223.1 2.8 1218.2 2.8"/>
    <polygon class="cls-1" points="1208.8 2.8 1194.4 27.2 1199.3 27.2 1213.7 2.8 1208.8 2.8"/>
    <polygon class="cls-1" points="1198.8 2.8 1184.3 27.2 1189.3 27.2 1203.7 2.8 1198.8 2.8"/>
    <polygon class="cls-1" points="983.5 2.8 969 27.2 974 27.2 988.4 2.8 983.5 2.8"/>
    <polygon class="cls-1" points="973.5 2.8 959 27.2 964 27.2 978.4 2.8 973.5 2.8"/>
    <polygon class="cls-1" points="964.1 2.8 949.7 27.2 954.6 27.2 969 2.8 964.1 2.8"/>
    <polygon class="cls-1" points="954.1 2.8 939.6 27.2 944.6 27.2 959 2.8 954.1 2.8"/>
    <polygon class="cls-1" points="944.7 2.8 930.3 27.2 935.2 27.2 949.7 2.8 944.7 2.8"/>
    <polygon class="cls-1" points="934.7 2.8 920.2 27.2 925.2 27.2 939.6 2.8 934.7 2.8"/>
    <polygon class="cls-1" points="925.3 2.8 910.9 27.2 915.8 27.2 930.3 2.8 925.3 2.8"/>
    <polygon class="cls-1" points="915.3 2.8 900.8 27.2 905.8 27.2 920.2 2.8 915.3 2.8"/>
    <polygon class="cls-1" points="905.9 2.8 891.5 27.2 896.4 27.2 910.9 2.8 905.9 2.8"/>
    <polygon class="cls-1" points="895.9 2.8 881.4 27.2 886.4 27.2 900.8 2.8 895.9 2.8"/>
    <polygon class="cls-1" points="886.5 2.8 872.1 27.2 877 27.2 891.5 2.8 886.5 2.8"/>
    <polygon class="cls-1" points="876.5 2.8 862.1 27.2 867 27.2 881.4 2.8 876.5 2.8"/>
    <polygon class="cls-1" points="867.1 2.8 852.7 27.2 857.6 27.2 872.1 2.8 867.1 2.8"/>
    <polygon class="cls-1" points="857.1 2.8 842.7 27.2 847.6 27.2 862.1 2.8 857.1 2.8"/>
    <polygon class="cls-1" points="847.7 2.8 833.3 27.2 838.3 27.2 852.7 2.8 847.7 2.8"/>
    <polygon class="cls-1" points="837.7 2.8 823.3 27.2 828.2 27.2 842.7 2.8 837.7 2.8"/>
    <polygon class="cls-1" points="828.3 2.8 813.9 27.2 818.9 27.2 833.3 2.8 828.3 2.8"/>
    <polygon class="cls-1" points="818.3 2.8 803.9 27.2 808.8 27.2 823.3 2.8 818.3 2.8"/>
    <polygon class="cls-1" points="808.9 2.8 794.5 27.2 799.5 27.2 813.9 2.8 808.9 2.8"/>
    <polygon class="cls-1" points="798.9 2.8 784.5 27.2 789.4 27.2 803.9 2.8 798.9 2.8"/>
    <polygon class="cls-1" points="789.5 2.8 775.1 27.2 780.1 27.2 794.5 2.8 789.5 2.8"/>
    <polygon class="cls-1" points="779.5 2.8 765.1 27.2 770 27.2 784.5 2.8 779.5 2.8"/>
    <polygon class="cls-1" points="770.1 2.8 755.7 27.2 760.7 27.2 775.1 2.8 770.1 2.8"/>
    <polygon class="cls-1" points="760.1 2.8 745.7 27.2 750.7 27.2 765.1 2.8 760.1 2.8"/>
    <polygon class="cls-1" points="750.8 2.8 736.3 27.2 741.3 27.2 755.7 2.8 750.8 2.8"/>
    <polygon class="cls-1" points="740.7 2.8 726.3 27.2 731.3 27.2 745.7 2.8 740.7 2.8"/>
    <polygon class="cls-1" points="731.4 2.8 716.9 27.2 721.9 27.2 736.3 2.8 731.4 2.8"/>
    <polygon class="cls-1" points="721.3 2.8 706.9 27.2 711.9 27.2 726.3 2.8 721.3 2.8"/>
    <polygon class="cls-1" points="712 2.8 697.5 27.2 702.5 27.2 716.9 2.8 712 2.8"/>
    <polygon class="cls-1" points="701.9 2.8 687.5 27.2 692.5 27.2 706.9 2.8 701.9 2.8"/>
    <polygon class="cls-1" points="692.6 2.8 678.1 27.2 683.1 27.2 697.5 2.8 692.6 2.8"/>
    <polygon class="cls-1" points="682.6 2.8 668.1 27.2 673.1 27.2 687.5 2.8 682.6 2.8"/>
    <polygon class="cls-1" points="673.2 2.8 658.7 27.2 663.7 27.2 678.1 2.8 673.2 2.8"/>
    <polygon class="cls-1" points="663.2 2.8 648.7 27.2 653.7 27.2 668.1 2.8 663.2 2.8"/>
    <polygon class="cls-1" points="653.8 2.8 639.4 27.2 644.3 27.2 658.7 2.8 653.8 2.8"/>
    <polygon class="cls-1" points="643.8 2.8 629.3 27.2 634.3 27.2 648.7 2.8 643.8 2.8"/>
    <polygon class="cls-1" points="634.4 2.8 620 27.2 624.9 27.2 639.4 2.8 634.4 2.8"/>
    <polygon class="cls-1" points="624.4 2.8 609.9 27.2 614.9 27.2 629.3 2.8 624.4 2.8"/>
    <polygon class="cls-1" points="615 2.8 600.6 27.2 605.5 27.2 620 2.8 615 2.8"/>
    <polygon class="cls-1" points="605 2.8 590.5 27.2 595.5 27.2 609.9 2.8 605 2.8"/>
    <polygon class="cls-1" points="595.6 2.8 581.2 27.2 586.1 27.2 600.6 2.8 595.6 2.8"/>
    <polygon class="cls-1" points="585.6 2.8 571.2 27.2 576.1 27.2 590.5 2.8 585.6 2.8"/>
    <polygon class="cls-1" points="576.2 2.8 561.8 27.2 566.7 27.2 581.2 2.8 576.2 2.8"/>
    <polygon class="cls-1" points="566.2 2.8 551.8 27.2 556.7 27.2 571.2 2.8 566.2 2.8"/>
    <polygon class="cls-1" points="556.8 2.8 542.4 27.2 547.3 27.2 561.8 2.8 556.8 2.8"/>
    <polygon class="cls-1" points="546.8 2.8 532.4 27.2 537.3 27.2 551.8 2.8 546.8 2.8"/>
    <polygon class="cls-1" points="537.4 2.8 523 27.2 528 27.2 542.4 2.8 537.4 2.8"/>
    <polygon class="cls-1" points="527.4 2.8 513 27.2 517.9 27.2 532.4 2.8 527.4 2.8"/>
    <polygon class="cls-1" points="518 2.8 503.6 27.2 508.6 27.2 523 2.8 518 2.8"/>
    <polygon class="cls-1" points="508 2.8 493.6 27.2 498.5 27.2 513 2.8 508 2.8"/>
    <polygon class="cls-1" points="498.6 2.8 484.2 27.2 489.2 27.2 503.6 2.8 498.6 2.8"/>
    <polygon class="cls-1" points="488.6 2.8 474.2 27.2 479.1 27.2 493.6 2.8 488.6 2.8"/>
    <polygon class="cls-1" points="479.2 2.8 464.8 27.2 469.8 27.2 484.2 2.8 479.2 2.8"/>
    <polygon class="cls-1" points="469.2 2.8 454.8 27.2 459.8 27.2 474.2 2.8 469.2 2.8"/>
    <polygon class="cls-1" points="459.9 2.8 445.4 27.2 450.4 27.2 464.8 2.8 459.9 2.8"/>
    <polygon class="cls-1" points="449.8 2.8 435.4 27.2 440.4 27.2 454.8 2.8 449.8 2.8"/>
    <polygon class="cls-1" points="440.5 2.8 426 27.2 431 27.2 445.4 2.8 440.5 2.8"/>
    <polygon class="cls-1" points="430.4 2.8 416 27.2 421 27.2 435.4 2.8 430.4 2.8"/>
    <polygon class="cls-1" points="421.1 2.8 406.6 27.2 411.6 27.2 426 2.8 421.1 2.8"/>
    <polygon class="cls-1" points="411 2.8 396.6 27.2 401.6 27.2 416 2.8 411 2.8"/>
    <polygon class="cls-1" points="401.7 2.8 387.2 27.2 392.2 27.2 406.6 2.8 401.7 2.8"/>
    <polygon class="cls-1" points="391.6 2.8 377.2 27.2 382.2 27.2 396.6 2.8 391.6 2.8"/>
    <polygon class="cls-1" points="382.3 2.8 367.8 27.2 372.8 27.2 387.2 2.8 382.3 2.8"/>
    <polygon class="cls-1" points="372.3 2.8 357.8 27.2 362.8 27.2 377.2 2.8 372.3 2.8"/>
    <polygon class="cls-1" points="362.9 2.8 348.5 27.2 353.4 27.2 367.8 2.8 362.9 2.8"/>
    <polygon class="cls-1" points="352.9 2.8 338.4 27.2 343.4 27.2 357.8 2.8 352.9 2.8"/>
    <polygon class="cls-1" points="343.5 2.8 329.1 27.2 334 27.2 348.5 2.8 343.5 2.8"/>
    <polygon class="cls-1" points="333.5 2.8 319 27.2 324 27.2 338.4 2.8 333.5 2.8"/>
    <polygon class="cls-1" points="324.1 2.8 309.7 27.2 314.6 27.2 329.1 2.8 324.1 2.8"/>
    <polygon class="cls-1" points="314.1 2.8 299.6 27.2 304.6 27.2 319 2.8 314.1 2.8"/>
    <polygon class="cls-1" points="304.7 2.8 290.3 27.2 295.2 27.2 309.7 2.8 304.7 2.8"/>
    <polygon class="cls-1" points="294.7 2.8 280.3 27.2 285.2 27.2 299.6 2.8 294.7 2.8"/>
    <polygon class="cls-1" points="285.3 2.8 270.9 27.2 275.8 27.2 290.3 2.8 285.3 2.8"/>
    <polygon class="cls-1" points="275.3 2.8 260.9 27.2 265.8 27.2 280.3 2.8 275.3 2.8"/>
    <polygon class="cls-1" points="265.9 2.8 251.5 27.2 256.4 27.2 270.9 2.8 265.9 2.8"/>
    <polygon class="cls-1" points="255.9 2.8 241.5 27.2 246.4 27.2 260.9 2.8 255.9 2.8"/>
    <polygon class="cls-1" points="246.5 2.8 232.1 27.2 237.1 27.2 251.5 2.8 246.5 2.8"/>
    <polygon class="cls-1" points="236.5 2.8 222.1 27.2 227 27.2 241.5 2.8 236.5 2.8"/>
    <polygon class="cls-1" points="227.1 2.8 212.7 27.2 217.7 27.2 232.1 2.8 227.1 2.8"/>
    <polygon class="cls-1" points="217.1 2.8 202.7 27.2 207.6 27.2 222.1 2.8 217.1 2.8"/>
    <polygon class="cls-1" points="207.7 2.8 193.3 27.2 198.3 27.2 212.7 2.8 207.7 2.8"/>
    <polygon class="cls-1" points="197.7 2.8 183.3 27.2 188.2 27.2 202.7 2.8 197.7 2.8"/>
    <polygon class="cls-1" points="188.3 2.8 173.9 27.2 178.9 27.2 193.3 2.8 188.3 2.8"/>
    <polygon class="cls-1" points="178.3 2.8 163.9 27.2 168.9 27.2 183.3 2.8 178.3 2.8"/>
    <polygon class="cls-1" points="169 2.8 154.5 27.2 159.5 27.2 173.9 2.8 169 2.8"/>
    <polygon class="cls-1" points="158.9 2.8 144.5 27.2 149.5 27.2 163.9 2.8 158.9 2.8"/>
    <polygon class="cls-1" points="149.6 2.8 135.1 27.2 140.1 27.2 154.5 2.8 149.6 2.8"/>
    <polygon class="cls-1" points="139.5 2.8 125.1 27.2 130.1 27.2 144.5 2.8 139.5 2.8"/>
    <polygon class="cls-1" points="130.2 2.8 115.7 27.2 120.7 27.2 135.1 2.8 130.2 2.8"/>
    <polygon class="cls-1" points="120.1 2.8 105.7 27.2 110.7 27.2 125.1 2.8 120.1 2.8"/>
    <polygon class="cls-1" points="110.8 2.8 96.3 27.2 101.3 27.2 115.7 2.8 110.8 2.8"/>
    <polygon class="cls-1" points="100.7 2.8 86.3 27.2 91.3 27.2 105.7 2.8 100.7 2.8"/>
    <polygon class="cls-1" points="91.4 2.8 76.9 27.2 81.9 27.2 96.3 2.8 91.4 2.8"/>
    <polygon class="cls-1" points="81.4 2.8 66.9 27.2 71.9 27.2 86.3 2.8 81.4 2.8"/>
    <polygon class="cls-1" points="72 2.8 57.6 27.2 62.5 27.2 76.9 2.8 72 2.8"/>
    <polygon class="cls-1" points="62 2.8 47.5 27.2 52.5 27.2 66.9 2.8 62 2.8"/>
    <polygon class="cls-1" points="52.6 2.8 38.2 27.2 43.1 27.2 57.6 2.8 52.6 2.8"/>
    <polygon class="cls-1" points="42.6 2.8 28.1 27.2 33.1 27.2 47.5 2.8 42.6 2.8"/>
    <polygon class="cls-1" points="33.2 2.8 18.8 27.2 23.7 27.2 38.2 2.8 33.2 2.8"/>
    <polygon class="cls-1" points="23.2 2.8 8.7 27.2 13.7 27.2 28.1 2.8 23.2 2.8"/>
    <polygon class="cls-1" points="13.8 2.8 -.6 27.2 4.3 27.2 18.8 2.8 13.8 2.8"/>
    <polygon class="cls-1" points="3.8 2.8 -10.7 27.2 -5.7 27.2 8.7 2.8 3.8 2.8"/>
    <polygon class="cls-1" points="-5.6 2.8 -20 27.2 -15.1 27.2 -.6 2.8 -5.6 2.8"/>
  </g>
</svg>